<svg width="81" height="81" viewBox="0 0 81 81" fill="none" xmlns="http://www.w3.org/2000/svg">
<g clip-path="url(#clip0_1017_404)">
<path d="M81 79.241C80.3691 80.6121 79.2796 81.0039 77.81 81C52.921 80.9725 28.0281 80.9804 3.13915 80.9804C2.87658 80.9804 2.61009 80.9882 2.34753 80.9765C0.995504 80.9099 -0.0116549 79.8835 0.000101871 78.5867C0.0118586 77.29 1.02294 76.2636 2.38672 76.244C4.54995 76.2166 6.70927 76.2362 8.87251 76.2323C9.15467 76.2323 9.44075 76.2323 9.80129 76.2323V75.2333C9.80129 67.0612 9.80129 58.893 9.80129 50.721C9.80129 48.6055 10.6478 47.7632 12.7757 47.7632C17.1806 47.7632 21.5815 47.7632 25.9864 47.7632C27.891 47.7632 28.7884 48.6642 28.7884 50.576C28.7884 58.7716 28.7884 66.9711 28.7884 75.1667V76.1696H33.5342V75.2568C33.5342 62.3679 33.5342 49.4791 33.5342 36.5902C33.5342 34.3455 34.3415 33.5267 36.5596 33.5267C40.8821 33.5267 45.2086 33.5267 49.5312 33.5267C51.6944 33.5267 52.5174 34.3611 52.5174 36.5511C52.5174 49.4399 52.5174 62.3288 52.5174 75.2176V76.1892H57.2044V24.0422C56.5147 24.0422 55.8132 24.054 55.1117 24.0422C52.972 24.007 51.8551 22.1304 52.9641 20.3127C56.8438 13.9466 60.751 7.60011 64.6856 1.27321C65.0109 0.748259 65.6418 0.419182 66.1277 0C66.551 0 66.9703 0 67.3936 0C68.2792 0.423099 68.8161 1.16352 69.3138 1.9823C73.1974 8.34054 77.1007 14.687 81 21.0374V22.3028C80.0595 24.4888 78.0726 23.9952 76.2934 24.05V76.2675C77.2182 76.2675 78.1157 76.2048 78.9974 76.2832C80.0203 76.3733 80.5493 77.1529 81 77.9756V79.241ZM59.1913 19.2157C61.4486 19.5605 62.0168 20.2265 62.0168 22.4595C62.0168 40.0416 62.0168 57.6237 62.0168 75.202V76.1931H71.5084V75.2294C71.5084 57.5963 71.5084 39.9594 71.5084 22.3263C71.5084 20.2343 72.1785 19.4782 74.3418 19.2353C71.8219 15.1375 69.3217 11.075 66.7587 6.9067C64.1879 11.0868 61.6955 15.1375 59.1874 19.2118L59.1913 19.2157ZM38.3388 38.314V76.1735H47.7363V38.3101H38.3388V38.314ZM14.6098 52.5466V76.1696H24.0034V52.5466H14.6098Z" fill="black"/>
<path d="M7.62779 0.00387636C8.97784 0.627971 9.52714 1.7056 9.34146 3.15536C9.15578 4.59349 9.38014 5.67499 10.9468 6.33398C11.736 6.66347 12.3433 7.55503 12.8965 8.29154C13.7514 9.43119 13.4999 10.8267 12.4207 11.602C11.3336 12.3811 9.972 12.1563 9.13257 11.0011C8.48269 10.1057 7.69355 9.55911 6.56013 9.76068C5.41124 9.96613 4.60276 11.0399 4.66852 12.1912C4.73815 13.3812 5.64334 14.3115 6.90054 14.3891C8.60648 14.4937 10.1538 14.955 11.4961 16.0675C15.3799 19.2888 14.6256 25.6034 10.0648 27.7392C9.5194 27.9951 9.26022 28.2626 9.32599 28.8905C9.39175 29.4836 9.3608 30.0883 9.32985 30.6892C9.26796 32.011 8.21191 33.0266 6.9547 32.9995C5.71683 32.9723 4.71881 31.98 4.66078 30.6892C4.62983 30.0108 4.62597 29.3324 4.66078 28.6579C4.68399 28.2315 4.54473 28.0106 4.14242 27.8439C2.83493 27.2973 1.82529 26.3825 1.05936 25.1886C0.312777 24.0257 0.510062 22.6806 1.55064 21.9208C2.63764 21.13 4.0109 21.3355 4.84259 22.479C5.51181 23.3977 6.30869 23.9675 7.48079 23.7311C8.60648 23.5024 9.37628 22.4674 9.32599 21.3432C9.27183 20.1532 8.36664 19.1957 7.12104 19.1182C5.38803 19.0136 3.82135 18.5406 2.45583 17.4049C-1.39316 14.1836 -0.592412 7.84188 3.97995 5.73702C4.51378 5.48893 4.73428 5.22146 4.67239 4.64001C4.61823 4.15158 4.69946 3.64766 4.65304 3.15536C4.51378 1.70172 5.02827 0.627971 6.37832 0H7.62779V0.00387636Z" fill="black"/>
</g>
<defs>
<clipPath id="clip0_1017_404">
<rect width="81" height="81" fill="white"/>
</clipPath>
</defs>
</svg>
