<svg width="81" height="81" viewBox="0 0 81 81" fill="none" xmlns="http://www.w3.org/2000/svg">
<g clip-path="url(#clip0_1017_397)">
<path d="M1.2241e-06 40.4511C0.00543601 18.0791 18.1739 -0.0162911 40.6087 1.10063e-05C62.8913 0.0163132 81.0054 18.1769 81 40.5054C81 62.8937 62.8424 81.0163 40.4294 81C18.087 80.9837 -0.00543356 62.834 1.2241e-06 40.4511ZM22.0978 20.6059C18.6196 19.3181 15.2228 18.0574 11.7554 16.7749C6.57609 23.1165 3.71739 30.4633 3.27174 38.8263H19.4457C19.6196 32.5935 20.4022 26.4801 22.0978 20.6114V20.6059ZM11.75 64.2196C15.2717 62.9155 18.663 61.6602 22.1033 60.3886C20.3804 54.4709 19.625 48.3522 19.4402 42.1954H3.26087C3.72826 50.5476 6.57609 57.889 11.75 64.2196ZM58.9022 20.6059C60.6087 26.4964 61.375 32.6152 61.5598 38.8154H77.6467C78.1413 32.751 73.288 20.3071 69.1902 16.8021C65.7391 18.0791 62.3859 19.3181 58.9022 20.6059ZM77.7337 42.19H61.5544C61.3859 48.4391 60.5815 54.5525 58.9076 60.3941C62.3967 61.6874 65.7663 62.9372 69.2391 64.2251C74.413 57.9107 77.2663 50.5584 77.7283 42.19H77.7337ZM25.25 21.3667C23.6141 27.0181 22.8261 32.8434 22.7065 38.8154H38.8315V22.8502C34.3152 22.3557 29.837 21.8666 25.25 21.3667ZM42.1685 38.8046H58.2989C58.1467 32.8108 57.3859 26.9692 55.7391 21.3613C51.1848 21.8612 46.7011 22.3503 42.1685 22.8502V38.8046ZM22.7228 42.1737C22.7228 42.4834 22.7174 42.7497 22.7228 43.016C22.8913 48.4337 23.6359 53.7645 25.0489 59.0029C25.2337 59.6876 25.5109 59.7963 26.1848 59.6931C28.8913 59.2801 31.6033 58.9051 34.3261 58.59C35.8098 58.4161 37.3152 58.3889 38.8207 58.2965V42.1683H22.7174L22.7228 42.1737ZM55.7446 59.6333C57.3804 53.9927 58.1739 48.1457 58.288 42.1954H42.1739V58.1444C46.712 58.6443 51.1902 59.1334 55.7446 59.6333ZM42.2011 3.43433V19.5898C46.3913 19.1387 50.4946 18.6986 54.8424 18.2258C53.9185 16.237 53.1902 14.4763 52.3044 12.7918C50.7337 9.81391 48.8152 7.09145 46.0109 5.10802C44.8641 4.29835 43.6304 3.67886 42.2011 3.4289V3.43433ZM38.8261 3.26044C37.7283 3.74407 36.6685 4.06468 35.7663 4.63526C30.7772 7.78157 28.4511 12.8081 26.3098 18.0356C30.5 18.8888 34.625 19.3018 38.8315 19.405V3.26588L38.8261 3.26044ZM42.1902 61.4048V77.5439C42.3859 77.5168 42.5272 77.5168 42.6522 77.4842C44.7174 76.9244 46.4348 75.7724 47.9239 74.2781C51.0761 71.0991 53.0598 67.2192 54.5815 63.0731C54.5924 63.0404 54.5489 62.9807 54.4511 62.7198C50.4565 62.2905 46.3587 61.8558 42.1848 61.4102L42.1902 61.4048ZM38.8152 77.5711V61.3994C34.6196 61.8558 30.5054 62.3014 26.2391 62.7633C26.788 64.0729 27.2011 65.1434 27.6848 66.1813C29.3261 69.6809 31.2935 72.9522 34.3696 75.4138C35.6631 76.4517 37.0924 77.2288 38.8207 77.5711H38.8152ZM50.3859 76.4245C56.7989 74.5878 62.1739 71.4524 66.962 66.7356C63.837 65.6271 60.8913 64.5837 57.9076 63.5241C56.1141 68.3223 53.9511 72.6587 50.3859 76.4245ZM66.875 14.2807C63.7391 10.4606 54.538 5.11889 50.5217 4.71677C53.9728 8.35215 56.1196 12.694 57.913 17.4705C60.9076 16.4054 63.8533 15.3566 66.875 14.2807ZM23.0924 17.4705C24.8804 12.6831 27.038 8.34128 30.6141 4.57005C24.2065 6.40132 18.837 9.53677 14.0489 14.2427C17.1576 15.3512 20.0978 16.4 23.0924 17.4705ZM23.1467 63.6599C20.0326 64.475 17.0761 65.4586 14.1848 66.8878C18.8641 71.4469 24.2011 74.5932 30.3967 76.2778C27.038 72.6315 24.8859 68.3169 23.1467 63.6545V63.6599Z" fill="black"/>
</g>
<defs>
<clipPath id="clip0_1017_397">
<rect width="81" height="81" fill="white"/>
</clipPath>
</defs>
</svg>
