<svg width="81" height="81" viewBox="0 0 81 81" fill="none" xmlns="http://www.w3.org/2000/svg">
<g clip-path="url(#clip0_1017_386)">
<path d="M0 66.914C0.384933 66.4214 0.718918 65.8836 1.1548 65.442C3.16437 63.3925 5.17961 61.343 7.25711 59.3615C7.69299 58.9482 8.37228 58.6425 8.97233 58.5745C9.6969 58.4896 10.263 59.0105 10.5234 59.7068C10.7951 60.4315 10.6196 61.1279 10.0762 61.6771C7.79488 63.9756 5.50227 66.2686 3.204 68.5558C2.28129 69.473 0.679293 69.4447 0 67.7066C0 67.4405 0 67.1801 0 66.914Z" fill="#231F20"/>
<path d="M13.2914 81C11.5705 80.1564 11.3554 78.8826 12.7197 77.5181C14.8595 75.3724 16.9936 73.2267 19.1503 71.0923C20.2089 70.0449 21.5731 70.1468 22.2185 71.2848C22.626 71.9981 22.5807 72.7964 21.9184 73.4645C19.6145 75.814 17.2709 78.1296 14.933 80.4452C14.701 80.6773 14.367 80.8132 14.0839 80.9943H13.2914V81Z" fill="#231F20"/>
<path d="M43.4182 64.1682C42.3936 65.2042 41.5105 66.0987 40.6218 66.9933C39.3255 68.2898 38.4367 68.2898 37.1348 66.9933C36.6706 66.529 36.2064 66.0648 35.6969 65.5496C35.4365 65.7081 35.1931 65.8496 34.9554 66.0025C32.442 67.6444 29.9286 69.2862 27.4096 70.9281C26.0793 71.7943 25.3943 71.7263 24.2792 70.611C19.6543 65.9912 15.0295 61.3657 10.4103 56.7402C9.26679 55.5965 9.20452 54.9285 10.1102 53.5471C11.8764 50.8352 13.6482 48.1176 15.5672 45.1793C15.0125 44.7037 14.4068 44.2394 13.869 43.7129C12.7482 42.6089 12.7595 41.6351 13.8803 40.5141C14.8087 39.5856 15.7597 38.6798 16.8749 37.5928C16.3597 37.5531 16.088 37.5248 15.822 37.5135C11.899 37.3493 7.97047 37.1795 4.04755 37.0266C3.17579 36.9926 2.51348 36.6643 2.18516 35.8264C1.86816 35.0111 2.13987 34.3317 2.72859 33.7429C7.03644 29.4345 11.333 25.1203 15.6635 20.8345C16.0144 20.4892 16.5522 20.2174 17.039 20.1382C22.864 19.1983 28.6946 18.3038 34.5252 17.398C35.3063 17.2791 36.0989 17.2055 36.8631 17.0243C37.2423 16.9337 37.6442 16.7129 37.9273 16.4412C40.5029 13.984 42.9088 11.3344 45.6429 9.06981C51.9207 3.86117 59.1495 0.792602 67.3407 0.107553C71.0881 -0.203833 74.7563 0.181153 78.3848 1.10399C79.2396 1.31913 79.6981 1.87396 79.9189 2.7232C81.9511 10.6154 81.0454 18.2415 77.8697 25.6582C75.7356 30.6347 72.7297 35.0168 68.8294 38.7874C67.369 40.1971 65.9424 41.6465 64.5329 43.1015C64.2782 43.3676 64.0404 43.7412 63.9838 44.0979C62.9479 50.603 61.9346 57.1082 60.9383 63.6133C60.8194 64.3776 60.5477 65.0004 59.993 65.5496C55.8097 69.7165 51.649 73.9117 47.443 78.056C47.0128 78.4806 46.3392 78.8259 45.7448 78.8882C44.7259 78.9958 44.0352 78.1069 43.9843 76.8897C43.8201 72.9379 43.656 68.9861 43.4918 65.0344C43.4805 64.8249 43.4635 64.6211 43.4239 64.1625L43.4182 64.1682ZM59.6194 48.1912L59.4835 48.1063C58.8948 48.7008 58.3117 49.3065 57.7117 49.8953C57.4852 50.1161 57.2532 50.337 56.9928 50.5125C55.821 51.2994 54.2982 50.5917 54.1624 49.1933C54.0888 48.446 54.5077 47.9081 55.0115 47.4043C58.7646 43.662 62.4894 39.8857 66.2594 36.1661C69.9729 32.5087 72.8373 28.2908 74.8072 23.4672C77.2357 17.5169 78.0395 11.3911 76.7036 5.04444C76.613 4.61982 76.4658 4.37637 75.9903 4.27446C71.2579 3.28369 66.5595 3.44221 61.9063 4.69908C55.3511 6.47115 49.696 9.79449 44.9183 14.6238C41.2445 18.3321 37.5367 22.0121 33.8459 25.7035C33.6477 25.9016 33.4439 26.0885 33.3704 26.1564C32.459 25.2675 31.6155 24.4466 30.557 23.4162C31.2872 22.7708 32.0514 22.0914 32.8835 21.3497C28.0096 22.1027 23.2489 22.8331 18.4882 23.5974C18.1316 23.654 17.7579 23.8918 17.4919 24.1522C14.5483 27.0679 11.6273 30.0006 8.70637 32.9276C8.55353 33.0805 8.42333 33.256 8.20256 33.5164C12.2047 33.6806 16.071 33.8505 19.9373 33.9864C20.2034 33.9977 20.5317 33.8052 20.7355 33.607C21.7261 32.6615 22.6772 31.6708 23.6565 30.7083C24.3301 30.0459 24.9811 29.3382 25.7227 28.7551C26.6057 28.0587 27.8171 28.3757 28.3493 29.3495C28.7908 30.1535 28.5983 30.9461 27.7322 31.8123C24.5112 35.0394 21.2846 38.2665 18.058 41.4936C17.8598 41.6917 17.6787 41.9012 17.5428 42.0428C20.6959 45.2019 23.781 48.2988 27.0926 51.6165C27.2341 51.3787 27.3473 51.056 27.5681 50.8352C34.5478 43.8318 41.5445 36.8398 48.5356 29.8534C48.8129 29.576 49.1073 29.2986 49.4413 29.1004C50.4942 28.4663 51.8188 29.0778 52.0792 30.278C52.2773 31.1782 51.8075 31.7783 51.2301 32.3558C44.1994 39.3818 37.1687 46.4135 30.1324 53.4338C29.9173 53.649 29.572 53.7452 29.4418 53.8132C32.7816 57.1535 35.8837 60.256 39.0764 63.4491C39.1953 63.3019 39.3595 63.0641 39.5632 62.8603C42.7672 59.6502 45.9769 56.4458 49.1809 53.2357C49.679 52.7375 50.2225 52.3411 50.981 52.4317C51.6999 52.5167 52.2264 52.913 52.4698 53.5697C52.7642 54.3567 52.5321 55.07 51.9377 55.6645C50.4489 57.1591 48.9375 58.6311 47.4827 60.1598C47.2109 60.4428 47.0015 60.9241 47.0128 61.3091C47.1317 65.023 47.3015 68.737 47.4657 72.451C47.4657 72.5359 47.5223 72.6209 47.5789 72.7681C50.7659 69.5806 53.8963 66.4498 57.0154 63.3076C57.2022 63.1208 57.3381 62.8207 57.3834 62.5546C58.1419 57.7706 58.8778 52.9809 59.625 48.1912H59.6194ZM32.8439 62.9566C30.806 60.9128 28.7851 58.8916 26.7642 56.8647C25.3773 58.0876 24.4773 58.2688 23.6112 57.4705C22.7451 56.6666 22.9036 55.7381 24.1263 54.2095C22.1054 52.1713 20.0958 50.1388 18.0523 48.0723C16.6031 50.2917 15.1427 52.5336 13.7388 54.6907C17.9617 58.9142 22.1111 63.0641 26.3114 67.265C28.3606 65.9289 30.472 64.5475 32.5892 63.1661C32.7137 63.0811 32.8269 62.9792 32.8496 62.9566H32.8439Z" fill="#231F20"/>
<path d="M2.98315 75.6498C3.11901 75.412 3.30582 74.8685 3.67377 74.5005C6.82116 71.3131 9.98553 68.1426 13.1669 64.9891C14.0386 64.1286 15.1821 64.1059 15.9124 64.8589C16.6652 65.6345 16.6143 66.7046 15.7199 67.5991C12.5782 70.7582 9.42511 73.8947 6.27772 77.0482C5.66636 77.6597 4.94744 77.9428 4.13229 77.6144C3.42469 77.3313 3.01712 76.7538 2.98882 75.6498H2.98315Z" fill="#231F20"/>
<path d="M70.9351 18.6718C70.9125 23.4502 67.0858 27.2491 62.3194 27.2265C57.5304 27.2038 53.7433 23.3936 53.7603 18.6209C53.7773 13.8425 57.6096 10.038 62.376 10.0663C67.165 10.0946 70.9634 13.9105 70.9408 18.6718H70.9351ZM67.2613 18.6152C67.2443 15.8863 65.0479 13.7123 62.3137 13.7236C59.5909 13.735 57.4115 15.943 57.4228 18.6718C57.4342 21.395 59.6419 23.5747 62.3703 23.5634C65.0932 23.5521 67.2726 21.3441 67.2613 18.6152Z" fill="#231F20"/>
</g>
<defs>
<clipPath id="clip0_1017_386">
<rect width="81" height="81" fill="white"/>
</clipPath>
</defs>
</svg>
