<svg width="81" height="81" viewBox="0 0 81 81" fill="none" xmlns="http://www.w3.org/2000/svg">
<path d="M40.1549 0.0399219C42.6999 0.0399219 45.245 0.115177 47.7839 0.0148367C49.8622 -0.0666901 51.2561 0.779935 52.4135 2.47946C55.8734 7.55293 59.7563 12.2752 64.4607 16.2449C66.788 18.2079 69.3081 19.8196 72.2453 20.7352C74.0249 21.2933 75.1201 22.7796 74.9895 24.5983C74.1058 36.6329 72.0897 48.3853 66.2341 59.1406C60.8204 69.0743 52.8989 76.1985 42.5319 80.5696C41.1816 81.1403 39.8935 81.1466 38.5307 80.5696C24.8719 74.8314 15.9859 64.6092 10.958 50.7622C8.43159 43.8386 7.13727 36.6329 6.40299 29.3143C6.24742 27.7402 6.07319 26.1661 6.00474 24.5858C5.93007 22.8235 6.73902 21.4188 8.35691 20.8355C13.0364 19.1423 16.658 15.9878 19.8813 12.3756C22.6691 9.25245 25.264 5.94748 27.7468 2.57353C29.0598 0.792477 30.5035 -0.0980466 32.7125 0.00856544C35.1891 0.133991 37.672 0.0399219 40.1549 0.0399219ZM40.1237 4.66187C37.7405 4.66187 35.3509 4.69322 32.9676 4.64305C32.2583 4.63051 31.8351 4.84373 31.4306 5.43951C28.7611 9.32144 25.8427 13.0027 22.5384 16.3516C19.1844 19.7569 15.6063 22.8674 11.1385 24.7488C10.9144 24.8429 10.7029 25.3258 10.7215 25.608C10.8771 27.6274 11.07 29.6404 11.3065 31.6535C12.0968 38.3638 13.472 44.9361 16.0046 51.22C20.6094 62.64 28.3069 71.0623 39.6135 75.9916C40.2855 76.2863 40.8207 76.2675 41.4741 75.979C51.3432 71.633 58.5865 64.5402 63.3344 54.826C67.8396 45.6134 69.4513 35.6985 70.2789 25.5955C70.2976 25.3446 69.9989 24.9056 69.75 24.8178C66.5204 23.6137 63.7326 21.7072 61.1378 19.4809C56.3712 15.3921 52.3949 10.5945 48.8231 5.43951C48.4124 4.84373 47.9892 4.63678 47.2861 4.64932C44.9028 4.69322 42.5133 4.66814 40.13 4.66814L40.1237 4.66187Z" fill="black"/>
<path d="M40.4764 57.9972C37.7059 57.9972 34.9355 58.0035 32.1651 57.9972C26.8732 57.9782 23.1388 54.3892 23.0431 49.1573C22.9856 45.7136 22.9856 42.2699 23.0431 38.8262C23.1133 34.6559 25.4497 31.6292 29.484 30.416C30.116 30.2265 30.1734 29.9105 30.167 29.3861C30.1479 27.4399 30.1287 25.5064 30.8437 23.6297C32.5353 19.2066 37.1953 16.439 41.919 17.0962C46.7769 17.7723 50.5048 21.7089 50.8048 26.5111C50.8687 27.5284 50.8048 28.552 50.8942 29.5693C50.9197 29.8473 51.2134 30.2454 51.4687 30.3339C55.835 31.8125 57.9799 34.7317 57.9926 39.2875C57.999 42.4468 58.0054 45.5999 57.9926 48.7592C57.9735 54.3513 54.3094 57.9782 48.6791 57.9846C45.9406 57.9846 43.2021 57.9846 40.4636 57.9846L40.4764 57.9972ZM40.521 53.2834C43.3553 53.2834 46.1832 53.2961 49.0175 53.2834C51.6474 53.2645 53.2752 51.6406 53.2816 49.0309C53.2944 45.7199 53.288 42.4026 53.2816 39.0916C53.2816 36.4188 51.6602 34.7823 48.9728 34.7696C43.3425 34.7507 37.7059 34.7507 32.0757 34.7696C29.3819 34.7759 27.7732 36.4125 27.7669 39.0853C27.7605 42.3647 27.7669 45.6504 27.7669 48.9298C27.7669 51.6785 29.3563 53.2771 32.1204 53.2834C34.9227 53.2961 37.7187 53.2834 40.521 53.2834ZM46.1385 30.0369C46.1385 29.0322 46.1577 28.0844 46.1385 27.1429C46.0683 24.23 43.7958 21.8984 40.853 21.6962C38.0315 21.5003 35.376 23.5792 34.9993 26.41C34.8398 27.5852 34.9738 28.7984 34.9738 30.0369H46.1449H46.1385Z" fill="black"/>
<path d="M42.9932 44.461C43.0068 45.9616 41.9798 47 40.4866 47C39.0406 47 38.0136 45.9796 38.0001 44.539C37.9866 43.0384 39.0136 41.994 40.5068 42C41.9527 42.006 42.9865 43.0264 43 44.461H42.9932Z" fill="black"/>
</svg>
