<svg width="81" height="81" viewBox="0 0 81 81" fill="none" xmlns="http://www.w3.org/2000/svg">
<g clip-path="url(#clip0_1017_412)">
<path d="M81 29.3861V33.5029C80.8276 34.7223 80.6983 35.9535 80.475 37.165C76.5919 58.4944 52.4984 69.61 33.7846 58.6943C33.1734 58.3375 32.8638 58.4473 32.4093 58.9021C26.2537 65.0892 20.0628 71.2449 13.9228 77.4477C12.3281 79.0631 10.6981 80.5413 8.38626 81H6.32916C6.15676 80.9451 5.98827 80.8784 5.81195 80.8392C4.01737 80.4354 2.55585 79.5101 1.45873 78.0358C-0.778614 75.0325 -0.402458 71.0842 2.40696 68.269C8.98184 61.6781 15.5607 55.095 22.1512 48.5198C22.5626 48.1081 22.6802 47.8336 22.355 47.269C18.519 40.5918 17.2847 33.4363 18.5895 25.8495C18.6639 25.4182 18.5856 25.1751 18.2368 24.9281C17.2063 24.1949 16.1915 23.4381 15.1923 22.6618C14.8397 22.3874 14.6007 22.403 14.2284 22.6579C12.2379 24.0302 10.0476 24.5556 7.63003 24.187C2.56369 23.4107 -0.896162 18.3881 0.204877 13.3498C1.31375 8.28409 6.4859 5.14742 11.4386 6.52756C16.3365 7.89593 19.1302 12.9185 17.7353 17.8196C17.6609 18.0784 17.6334 18.5175 17.7784 18.643C18.4837 19.2507 19.2595 19.78 19.91 20.2623C21.0345 18.1921 21.9435 16.0591 23.2444 14.1967C30.9674 3.15956 41.5703 -1.51801 54.9003 0.430651C67.1449 2.21855 77.6616 12.303 80.1967 24.4144C80.5416 26.0573 80.7375 27.7275 81 29.3861ZM22.9936 28.4843C22.4999 33.2128 23.119 37.6081 24.9175 41.8034C30.0779 53.8325 42.448 60.2274 55.2921 57.5612C69.3823 54.6363 78.8097 40.0625 75.6986 26.0102C72.6932 12.4284 60.8757 3.69279 47.0363 4.81415C36.7625 5.64929 27.5271 12.9303 24.2514 22.7598C24.1025 23.2068 24.1652 23.446 24.5531 23.7322C28.1815 26.4062 31.798 29.0959 35.4029 31.8013C35.8182 32.115 36.0729 32.0718 36.4922 31.7974C39.329 29.9311 42.3265 29.6644 45.4259 31.072C45.9431 31.3073 46.2369 31.272 46.6366 30.8642C49.8065 27.657 52.9999 24.4732 56.1894 21.2817C56.35 21.1209 56.5068 20.9484 56.7497 20.6896C56.4754 20.6896 56.3265 20.674 56.1855 20.6896C54.5437 20.921 52.898 21.1445 51.2563 21.3915C49.7046 21.6267 48.4233 20.8112 48.2431 19.4467C48.055 17.9999 48.9601 16.9178 50.5275 16.6982C53.6307 16.263 56.734 15.8317 59.8373 15.3808C63.1013 14.9103 65.8362 17.4432 65.4561 20.7367C65.0761 24.0341 64.5589 27.3198 64.0652 30.6015C63.8575 31.9777 62.6507 32.7972 61.2988 32.5659C60.0372 32.3502 59.2065 31.1504 59.3985 29.8134C59.5199 28.9783 59.6453 28.1432 59.7589 27.308C59.8961 26.2886 60.0254 25.2653 60.1665 24.1713C59.9901 24.2498 59.9353 24.2576 59.9039 24.289C56.5264 27.6609 53.1449 31.0328 49.7908 34.4283C49.6341 34.5851 49.6302 35.0517 49.7399 35.2908C50.6293 37.2317 50.884 39.2352 50.3864 41.3054C49.1796 46.3084 44.1798 49.3039 39.2702 47.9865C34.3489 46.6691 31.4924 41.5995 32.9304 36.6749C33.0872 36.1417 32.9892 35.8868 32.5621 35.5731C30.0505 33.7382 27.5624 31.8719 25.0664 30.0134C24.416 29.5311 23.7656 29.0489 22.9858 28.4725L22.9936 28.4843ZM13.5192 64.011C14.6908 65.1872 15.8545 66.3517 16.9125 67.4182C20.9013 63.4307 24.9489 59.3844 28.8554 55.4793C27.7583 54.3657 26.6024 53.1856 25.4818 52.0485C21.536 55.9929 17.5002 60.0313 13.5153 64.0149L13.5192 64.011ZM13.339 15.2867C13.3507 12.9028 11.4974 11.0012 9.1229 10.9659C6.72491 10.9307 4.76968 12.8362 4.75401 15.224C4.74226 17.6039 6.68965 19.5644 9.06021 19.5604C11.4151 19.5565 13.3233 17.651 13.3351 15.2828L13.339 15.2867ZM37.315 39.2587C37.315 41.6308 39.1958 43.5285 41.5663 43.5521C43.9487 43.5756 45.8921 41.6387 45.8882 39.247C45.8843 36.8945 43.9722 34.9654 41.629 34.9458C39.2506 34.9262 37.3111 36.8631 37.315 39.2627V39.2587ZM13.4291 71.1116C12.2379 69.9158 11.0742 68.7513 9.91048 67.5829C8.40194 69.0689 6.80719 70.5549 5.31824 72.1389C4.43271 73.0799 4.60903 74.5973 5.52983 75.5069C6.47806 76.4401 7.97876 76.5498 8.95834 75.6167C10.5021 74.1503 11.9597 72.5937 13.4252 71.1077L13.4291 71.1116Z" fill="black"/>
</g>
<defs>
<clipPath id="clip0_1017_412">
<rect width="81" height="81" fill="white"/>
</clipPath>
</defs>
</svg>
